<?xml version="1.0" encoding="utf-8"?>
<svg height="210mm" id="svg8" version="1.1" viewBox="0 0 210 210" width="210mm" xmlns="http://www.w3.org/2000/svg" xmlns:cc="http://creativecommons.org/ns#" xmlns:dc="http://purl.org/dc/elements/1.1/" xmlns:rdf="http://www.w3.org/1999/02/22-rdf-syntax-ns#" xmlns:svg="http://www.w3.org/2000/svg">
<defs id="defs2"/>
<metadata id="metadata5">
<rdf:RDF>
<cc:Work rdf:about="">
<dc:format>image/svg+xml</dc:format>
<dc:type rdf:resource="http://purl.org/dc/dcmitype/StillImage"/>
<dc:title/>
</cc:Work>
</rdf:RDF>
</metadata>
<g id="layer1" transform="translate(0,-87)">
<path d="m 141.735008034645,191.76445773557876 c 0.05047841577878211,5.007159301504816 -0.9174014838548935,9.839659375342954 -2.6417527139287413,13.8719681909374 -1.7378742448674598,4.430469939437615 -2.073527897304028,8.144749466496515 -7.400404745640671,11.366738457821514 -3.1164515801059696,3.294923798560491 -6.808350134693685,5.861725833069814 -11.181989390405969,7.663939666342793 -4.188212026218651,2.0866253985974144 -8.829748268502943,2.87705899030216 -13.710429609571667,2.8607233327443886 -4.762585708763802,0.2847101573309948 -9.483150071406781,-0.9093198853198297 -13.71382537710106,-1.6031611700622217 -4.186488306955027,-1.5250405987028044 -7.856618621767274,-4.3293313047276 -11.168682096354734,-7.3086882314610015 -3.1013638583941137,-2.5201591682982785 -5.665495699641287,-6.8100216357078605 -6.8634988383705124,-11.076280801288908 -1.6319242988042384,-4.153100050154781 -2.7431457880696093,-8.810159588502755 -2.615703751017698,-13.523176111568924 0.0806451191785326,-4.868797059347918 2.2414608120699815,-9.347767840164309 2.7738019209105707,-13.701303080550224 2.197372812426912,-4.111005046985799 4.39863427524609,-5.3588366623024735 7.640267161968337,-10.039036027688747 3.320027737293467,-3.1516325040591555 7.942550988235434,-5.64576294247185 11.420672074891112,-7.540642986421879 4.430766012588568,-1.6774527990795702 8.890965749418756,-2.6583183171303633 13.847156674250005,-2.415255301990506 4.952277822775539,0.09895549159637614 9.591562301425848,1.70104908501761 13.959314033355268,2.785889783520567 4.343190318675422,1.8265864486115162 8.18829608776916,4.506974622997863 11.566431194805288,7.636699855720789 3.288206649679312,3.295740317071336 5.814408148291948,6.994933100093441 7.665428030989564,11.282483807136035 1.8858804566602503,4.280296062957527 3.4070482134128723,8.966572964681873 2.7950995290616363,14.395565485843179 z" id="path815" style="opacity:1;vector-effect:none;fill:#000000;fill-opacity:1;stroke:none;stroke-width:1.71554804;stroke-linecap:square;stroke-linejoin:round;stroke-miterlimit:4;stroke-dasharray:none;stroke-dashoffset:0;stroke-opacity:1;paint-order:markers fill stroke"/>
</g>
</svg>