<?xml version="1.0" encoding="UTF-8" standalone="no"?>
<svg
   xmlns:dc="http://purl.org/dc/elements/1.1/"
   xmlns:cc="http://creativecommons.org/ns#"
   xmlns:rdf="http://www.w3.org/1999/02/22-rdf-syntax-ns#"
   xmlns:svg="http://www.w3.org/2000/svg"
   xmlns="http://www.w3.org/2000/svg"
   id="svg8"
   version="1.1"
   viewBox="0 0 210 210"
   height="210mm"
   width="210mm">
  <defs
     id="defs2" />
  <metadata
     id="metadata5">
    <rdf:RDF>
      <cc:Work
         rdf:about="">
        <dc:format>image/svg+xml</dc:format>
        <dc:type
           rdf:resource="http://purl.org/dc/dcmitype/StillImage" />
        <dc:title></dc:title>
      </cc:Work>
    </rdf:RDF>
  </metadata>
  <g
     transform="translate(0,-87)"
     id="layer1">
    <path
       id="path815"
       d="m 141.65286,191.6958 c 0,4.87109 -0.9872,9.51161 -2.77244,13.7324 -1.78525,4.2208 -4.36854,8.02186 -7.56071,11.21403 -3.19217,3.19217 -6.99323,5.77546 -11.21403,7.56071 -4.22079,1.78524 -8.86131,2.77244 -13.7324,2.77244 -4.87109,0 -9.511613,-0.9872 -13.732404,-2.77244 -4.22079,-1.78525 -8.02185,-4.36854 -11.214024,-7.56071 -3.192174,-3.19217 -5.775461,-6.99324 -7.560704,-11.21403 -1.785244,-4.22079 -2.772444,-8.86131 -2.772444,-13.7324 0,-4.87109 0.9872,-9.51161 2.772444,-13.7324 1.785244,-4.22079 4.368531,-8.02186 7.560704,-11.21403 3.192174,-3.19217 6.993234,-5.77546 11.214025,-7.5607 4.22079,-1.78525 8.861313,-2.77245 13.732403,-2.77245 4.87109,0 9.51161,0.9872 13.7324,2.77244 4.2208,1.78525 8.02186,4.36853 11.21403,7.56071 3.19217,3.19217 5.77546,6.99323 7.56071,11.21403 1.78524,4.22079 2.77244,8.86131 2.77244,13.7324 z"
       style="opacity:1;vector-effect:none;fill:#000000;fill-opacity:1;stroke:none;stroke-width:1.71554804;stroke-linecap:square;stroke-linejoin:round;stroke-miterlimit:4;stroke-dasharray:none;stroke-dashoffset:0;stroke-opacity:1;paint-order:markers fill stroke" />
  </g>
</svg>
